PathFileType	4	(X/Y/Z)	/Users/mathieubourgeois/Desktop/Analyse/Traitement/Sujet_08/Data/Transformed_Sujet_08_velo_100.trc
DataRate	CameraRate	NumFrames	NumMarkers	Units	OrigDataRate	OrigDataStartFrame	OrigNumFrames
120.000000	120.000000	4	35	mm	120.000000	698	1862
Frame#	Time	RFHD			RANE			STRN			LANI			LKNE			T10			RHUM			RWRB			C7			LFWT			LTOE			RTOE			LWRA			LBWT			RBWT			RFWT			LKNI			RKNI			RKNE			LANE			RANI			LHEE			LHUM			LRAD			RRAD			RWRA			LWRB			LFHD			LBHD			RBHD			RSHO			LSHO			CLAV			LCAR			RCAR			
		X1	Y1	Z1	X2	Y2	Z2	X3	Y3	Z3	X4	Y4	Z4	X5	Y5	Z5	X6	Y6	Z6	X7	Y7	Z7	X8	Y8	Z8	X9	Y9	Z9	X10	Y10	Z10	X11	Y11	Z11	X12	Y12	Z12	X13	Y13	Z13	X14	Y14	Z14	X15	Y15	Z15	X16	Y16	Z16	X17	Y17	Z17	X18	Y18	Z18	X19	Y19	Z19	X20	Y20	Z20	X21	Y21	Z21	X22	Y22	Z22	X23	Y23	Z23	X24	Y24	Z24	X25	Y25	Z25	X26	Y26	Z26	X27	Y27	Z27	X28	Y28	Z28	X29	Y29	Z29	X30	Y30	Z30	X31	Y31	Z31	X32	Y32	Z32	X33	Y33	Z33	X34	Y34	Z34	X35	Y35	Z35	

699	5.816666666666666	281.5114135742188	1374.733032226562	89.32350921630854	-119.8593063354492	585.5667724609375	175.0209350585937	-43.26327133178711	1159.9814453125	23.94131660461418	-221.2618103027344	307.5226440429688	-75.12265777587895	-92.3179473876953	696.5769653320312	-147.2125549316407	-187.1164398193359	1353.642822265625	16.82439041137685	133.7780151367187	1060.929443359375	210.4047393798828	335.0289306640624	905.1793212890625	253.3293304443359	46.88904190063477	1427.453247070312	23.91846466064445	-251.0463409423828	1096.944458007812	-106.556610107422	-105.6081085205078	155.04638671875	-109.8536605834961	47.18441009521483	483.9318237304688	135.9002227783203	358.02978515625	937.6812744140625	-177.3079833984375	-390.9983520507812	1159.803833007812	-42.37669372558606	-391.2431030273438	1164.355712890625	88.67741394042957	-240.3867340087891	1101.472778320312	124.7423858642577	-116.2341079711914	633.9111938476562	-42.93031311035161	61.4427146911621	887.9021606445312	87.50164794921871	37.06738662719724	942.3050537109375	194.0850372314453	-262.0756225585938	305.1953430175781	-155.5666503906251	-93.46142578125001	594.228271484375	95.86164093017572	-308.0887756347656	299.1753234863281	-109.4509887695313	123.3059844970703	1056.6162109375	-191.2705993652344	167.5434112548828	1083.726318359375	-253.2777404785157	168.2329559326172	1079.1318359375	263.1248474121093	356.9887390136719	926.99609375	185.7397613525391	331.3370361328125	891.9467163085938	-230.1043701171875	291.4618835449219	1378.31982421875	-39.74154281616216	204.989990234375	1505.656005859375	-54.6380348205567	197.3199615478516	1519.892944335938	83.02446746826165	75.02236175537108	1356.571899414062	153.290054321289	68.45435333251955	1350.336059570312	-124.4520950317384	66.77244567871094	1291.611694335938	20.55752563476555	427.0570068359376	911.4237060546875	-256.359375	434.7606201171874	911.5526733398438	272.8059997558594	
700	5.825	280.9523010253906	1374.105834960938	89.11065673828119	-108.16943359375	574.7166748046875	176.290054321289	-44.14934158325195	1159.79150390625	23.66822433471672	-231.0645446777344	316.4153442382812	-74.15577697753911	-88.07534790039061	699.8052978515625	-148.1077575683594	-187.6888275146484	1353.684936523438	16.59009742736806	133.4120483398437	1060.701293945312	210.2059783935547	334.8940124511718	905.260009765625	253.1751708984375	46.41975784301758	1427.130004882812	23.3572406768798	-252.1145324707031	1096.934326171875	-106.8114776611329	-120.6361770629883	160.3113708496094	-109.7568511962891	61.20816040039061	477.906494140625	135.6503753662109	357.8140258789062	937.6714477539062	-177.4371948242188	-391.9375	1159.676635742188	-42.23750305175793	-391.7308959960938	1164.34619140625	88.87896728515614	-240.7322235107422	1101.420776367188	124.4684295654296	-114.0469131469727	638.2228393554688	-43.09973907470709	62.22413635253906	883.4661254882812	86.75558471679683	36.35880279541013	938.448486328125	192.8191680908203	-272.1889343261719	315.5714111328125	-154.5079345703126	-82.27400207519533	584.2027587890625	97.06171417236322	-318.2982177734375	310.9212036132812	-108.1505203247071	122.7960052490235	1056.175415039062	-191.0701293945313	166.8082275390625	1083.161254882812	-253.2597045898438	167.8855285644531	1078.999389648438	262.8488769531249	356.7983093261719	927.052978515625	185.5630798339844	331.2071838378906	891.8317260742188	-230.1879577636719	291.0396423339844	1377.704711914062	-40.05437469482427	204.6815185546875	1504.96728515625	-55.07320785522467	196.9430694580078	1519.333740234375	82.5676193237304	74.6770782470703	1356.254028320312	152.8595581054687	67.74963378906251	1349.868286132812	-124.954330444336	66.19133758544922	1291.186767578125	20.08153915405266	426.8603820800782	911.3986206054688	-256.5193176269531	434.6160278320312	911.69677734375	272.6502075195312	
701	5.833333333333333	280.3215637207031	1373.422119140625	88.70126342773432	-96.85520172119143	562.9183959960938	177.8228759765625	-45.111083984375	1159.502319335938	23.41805648803703	-239.9928283691406	326.5959167480469	-73.53903961181645	-82.90789794921874	703.7979125976562	-149.1552276611329	-188.3074798583984	1353.586791992188	16.26223564147939	133.0047454833984	1060.551025390625	210.0277709960937	334.7064514160156	905.3909912109375	252.9662475585937	45.85016250610352	1426.766967773438	22.74319839477531	-253.1357421875	1096.762329101562	-107.0589447021485	-134.9302978515625	167.0986175537109	-109.6751022338867	74.96200561523436	470.9104919433594	135.3899383544922	357.6044006347656	937.651611328125	-177.5759429931641	-392.8982238769531	1159.4052734375	-42.0106887817384	-392.2322998046875	1163.829345703125	89.16509246826161	-240.9575958251953	1101.091064453125	124.3043594360351	-110.7401809692383	643.1142578125	-43.61155319213873	62.85945129394531	876.7205810546875	85.52603149414058	35.25342941284178	933.016845703125	191.5602264404296	-281.2478637695312	327.1798706054688	-153.8461914062501	-71.78697967529298	572.5867309570312	98.33522033691402	-327.5391235351562	323.9630737304688	-107.2807998657227	122.3506698608399	1055.710815429688	-190.8263549804688	166.0850067138672	1082.55078125	-253.2495727539063	167.5173645019531	1078.961059570312	262.6096496582031	356.5547180175781	927.1239624023438	185.3512420654297	331.0299377441406	891.611328125	-230.2587890625	290.4967346191406	1376.912841796875	-40.48831558227544	204.2915191650391	1504.36083984375	-55.64935302734381	196.4878845214844	1518.764038085938	81.97837829589837	74.13130950927733	1355.986572265625	152.3309936523437	66.92945098876955	1349.388916015625	-125.452262878418	65.52910614013672	1290.679077148438	19.51996231079094	426.6968383789063	911.4089965820312	-256.6934204101562	434.4088745117187	911.8890991210938	272.4954223632812	
702	5.841666666666667	279.6622314453125	1372.76123046875	88.0787734985351	-86.20539093017581	550.1640625	179.3325500488281	-46.21979522705078	1159.14013671875	23.13401031494133	-248.2800750732422	337.9265441894531	-73.28364562988286	-77.09928131103514	708.5101318359375	-150.2685699462891	-189.0710296630859	1353.351440429688	16.0008316040038	132.5496673583984	1060.413208007812	209.8274383544922	334.4271545410156	905.5283203125	252.6963806152343	45.15995788574219	1426.362426757812	22.02266502380363	-254.0984497070312	1096.480590820312	-107.1526184082032	-148.3523712158203	175.3971099853516	-109.6129531860352	87.35189819335936	462.0580749511719	135.0441589355468	357.4354858398438	937.6090698242188	-177.7424926757812	-393.8658752441406	1158.953369140625	-41.746063232422	-392.8037109375	1162.890380859375	89.50635528564442	-240.9816589355469	1100.397094726562	124.1206130981444	-106.0348434448242	648.5771484375	-44.64178085327154	62.92406845092773	868.7744140625	85.9607772827148	34.09233093261717	926.0961303710938	190.4706573486328	-289.2378540039062	339.9049377441406	-153.6154785156251	-63.47442626953126	561.5185546875	99.48290252685543	-335.810791015625	338.2400207519531	-107.0005722045899	121.9094619750977	1055.230712890625	-190.6257019042969	165.4126281738282	1081.99462890625	-253.2560424804688	167.1006164550781	1078.944213867188	262.3117370605468	356.2886962890625	927.2245483398438	185.1513061523438	330.8819580078125	891.631591796875	-230.3500061035157	290.083740234375	1375.528686523438	-41.34053039550786	203.7497711181641	1503.62841796875	-56.34843063354499	195.9569091796875	1518.170776367188	81.28479003906243	73.56191253662108	1355.728881835938	151.7223358154296	65.96500396728517	1348.8681640625	-126.0805664062501	64.78656768798828	1290.137817382812	18.99010848999016	426.5115356445313	911.43798828125	-256.8942260742188	434.1503295898437	912.1099243164062	272.3078918457031	
